<svg height="512pt" viewBox="0 -36 512 512" width="512pt" xmlns="http://www.w3.org/2000/svg"><path d="m323.878906 239.425781 117.386719-117.386719v-56.566406h-56.570313l-117.382812 117.382813zm0 0" fill="#ffd740"/><path d="m164.074219 286.089844 24.042969-24.042969 56.566406 56.570313-24.042969 24.039062zm0 0" fill="#ffd740"/><path d="m323.878906 243.425781c-1.023437 0-2.046875-.394531-2.832031-1.167969-1.558594-1.5625-1.558594-4.097656 0-5.65625l116.210937-116.210937v-50.910156h-50.914062l-116.199219 116.199219c-1.558593 1.558593-4.097656 1.558593-5.65625 0-1.558593-1.558594-1.558593-4.09375 0-5.65625l117.382813-117.382813c.753906-.753906 1.769531-1.167969 2.832031-1.167969h56.570313c2.207031 0 4 1.792969 4 4v56.566406c0 1.066407-.425782 2.082032-1.167969 2.832032l-117.394531 117.386718c-.78125.773438-1.808594 1.167969-2.832032 1.167969zm0 0" fill="#263238"/><path d="m220.648438 346.664062c-1.0625 0-2.082032-.425781-2.832032-1.167968l-56.570312-56.566406c-.75-.753907-1.167969-1.769532-1.167969-2.832032 0-1.066406.425781-2.082031 1.167969-2.832031l24.050781-24.042969c1.558594-1.558594 4.09375-1.558594 5.65625 0 1.558594 1.5625 1.558594 4.097656 0 5.65625l-21.21875 21.210938 50.914063 50.910156 21.207031-21.214844c1.558593-1.5625 4.097656-1.5625 5.65625 0 1.558593 1.558594 1.558593 4.09375 0 5.65625l-24.039063 24.039063c-.746094.757812-1.761718 1.183593-2.824218 1.183593zm0 0" fill="#263238"/><path d="m220.648438 399.230469-113.136719-113.140625c-3.128907-3.128906-3.128907-8.195313 0-11.3125l16.96875-16.96875c3.128906-3.128906 8.191406-3.128906 11.3125 0l113.136719 113.136718c3.125 3.125 3.125 8.191407 0 11.3125l-16.96875 16.964844c-3.121094 3.128906-8.183594 3.128906-11.3125.007813zm0 0" fill="#ff5252"/><path d="m226.304688 405.558594c-3.074219 0-6.144532-1.167969-8.488282-3.503906l-113.136718-113.132813c-4.671876-4.675781-4.671876-12.289063 0-16.96875l16.976562-16.976563c4.671875-4.679687 12.296875-4.679687 16.96875 0l113.136719 113.144532c4.679687 4.679687 4.679687 12.285156 0 16.96875l-16.96875 16.972656c-2.335938 2.328125-5.417969 3.496094-8.488281 3.496094zm-2.824219-9.160156c1.558593 1.5625 4.09375 1.5625 5.65625 0l16.96875-16.964844c1.558593-1.5625 1.558593-4.097656 0-5.65625l-113.136719-113.136719c-1.5625-1.5625-4.097656-1.5625-5.65625 0l-16.976562 16.96875c-1.550782 1.558594-1.550782 4.09375 0 5.65625zm0 0" fill="#263238"/><path d="m121.65625 417.367188c-1.0625 0-2.082031-.421876-2.832031-1.167969l-28.289063-28.289063c-.75-.75-1.167968-1.765625-1.167968-2.832031 0-1.0625.425781-2.078125 1.167968-2.832031l56.570313-56.566406c1.558593-1.558594 4.09375-1.558594 5.65625 0l28.277343 28.28125c1.5625 1.558593 1.5625 4.09375 0 5.65625l-56.558593 56.566406c-.746094.769531-1.761719 1.183594-2.824219 1.183594zm-22.632812-32.277344 22.632812 22.628906 50.902344-50.917969-22.621094-22.625zm0 0" fill="#263238"/><path d="m138.625 400.398438c-1.023438 0-2.050781-.390626-2.832031-1.167969l-28.289063-28.277344c-1.558594-1.5625-1.558594-4.097656 0-5.65625 1.558594-1.5625 4.097656-1.5625 5.65625 0l28.289063 28.277344c1.558593 1.5625 1.558593 4.097656 0 5.65625-.777344.777343-1.800781 1.167969-2.824219 1.167969zm0 0" fill="#263238"/><path d="m203.679688 307.0625c-1.023438 0-2.046876-.390625-2.832032-1.167969-1.558594-1.558593-1.558594-4.09375 0-5.65625l12.726563-12.726562c1.5625-1.558594 4.097656-1.558594 5.65625 0 1.5625 1.558593 1.5625 4.097656 0 5.65625l-12.726563 12.726562c-.777344.777344-1.800781 1.167969-2.824218 1.167969zm0 0" fill="#263238"/><path d="m295.601562 215.144531c-1.027343 0-2.050781-.390625-2.832031-1.167969-1.5625-1.5625-1.5625-4.097656 0-5.65625l128.695313-128.695312c1.558594-1.5625 4.09375-1.5625 5.65625 0 1.558594 1.558594 1.558594 4.09375 0 5.65625l-128.6875 128.6875c-.785156.785156-1.808594 1.175781-2.832032 1.175781zm0 0" fill="#263238"/><path d="m178.222656 300.234375 28.285156 28.28125-28.285156 28.285156-28.285156-28.285156zm0 0" fill="#40c4ff"/><path d="m178.214844 360.800781c-1.023438 0-2.046875-.394531-2.832032-1.167969l-28.277343-28.28125c-1.5625-1.558593-1.5625-4.09375 0-5.65625l28.277343-28.289062c1.503907-1.503906 4.160157-1.503906 5.65625 0l28.289063 28.289062c.75.753907 1.167969 1.769532 1.167969 2.832032 0 1.066406-.425782 2.082031-1.167969 2.832031l-28.289063 28.28125c-.773437.765625-1.800781 1.160156-2.824218 1.160156zm-22.621094-32.28125 22.621094 22.625 22.632812-22.625-22.632812-22.632812zm0 0" fill="#263238"/><path d="m110.335938 440c-1.023438 0-2.046876-.390625-2.832032-1.167969l-39.59375-39.601562c-1.558594-1.558594-1.558594-4.09375 0-5.65625l16.96875-16.964844c1.5625-1.5625 4.097656-1.5625 5.65625 0l39.601563 39.597656c.75.753907 1.167969 1.769531 1.167969 2.832031 0 1.066407-.425782 2.082032-1.167969 2.832032l-16.976563 16.976562c-.777344.761719-1.800781 1.152344-2.824218 1.152344zm-33.9375-43.601562 33.9375 33.945312 11.320312-11.320312-33.945312-33.945313zm0 0" fill="#263238"/><path d="m291.359375 342.65625 56.570313-56.566406-220.617188-220.617188h-56.570312v56.566406zm0 0" fill="#ffd740"/><path d="m291.359375 346.664062c-1.023437 0-2.046875-.390624-2.832031-1.167968l-220.617188-220.625c-.75-.75-1.167968-1.765625-1.167968-2.832032v-56.566406c0-2.207031 1.792968-4 4-4h56.570312c1.0625 0 2.078125.421875 2.832031 1.167969l220.617188 220.617187c1.558593 1.558594 1.558593 4.09375 0 5.652344l-56.570313 56.570313c-.785156.792969-1.808594 1.183593-2.832031 1.183593zm-216.617187-226.28125 216.617187 216.617188 50.914063-50.910156-216.617188-216.617188h-50.914062zm0 0" fill="#263238"/><path d="m291.359375 399.230469 113.136719-113.132813c3.128906-3.128906 3.128906-8.195312 0-11.3125l-16.96875-16.96875c-3.128906-3.128906-8.191406-3.128906-11.3125 0l-113.144532 113.128906c-3.125 3.125-3.125 8.191407 0 11.3125l16.96875 16.964844c3.128907 3.128906 8.191407 3.128906 11.320313.007813zm0 0" fill="#ff5252"/><path d="m285.703125 405.558594c-3.070313 0-6.144531-1.167969-8.488281-3.503906l-16.96875-16.976563c-4.679688-4.679687-4.679688-12.285156 0-16.964844l113.136718-113.136719c4.671876-4.679687 12.296876-4.679687 16.96875 0l16.976563 16.96875c4.671875 4.679688 4.671875 12.292969 0 16.964844l-113.144531 113.144532c-2.34375 2.34375-5.40625 3.503906-8.480469 3.503906zm5.65625-6.328125h.082031zm90.503906-139.757813c-1.023437 0-2.046875.382813-2.832031 1.167969l-113.128906 113.136719c-1.558594 1.558594-1.558594 4.09375 0 5.65625l16.96875 16.972656c1.5625 1.554688 4.097656 1.5625 5.65625 0l113.144531-113.132812c1.550781-1.5625 1.550781-4.097657 0-5.664063l-16.976563-16.96875c-.785156-.785156-1.808593-1.167969-2.832031-1.167969zm0 0" fill="#263238"/><path d="m390.351562 417.367188c-1.0625 0-2.078124-.421876-2.832031-1.167969l-56.558593-56.566407c-1.5625-1.5625-1.5625-4.097656 0-5.65625l28.277343-28.28125c1.5625-1.558593 4.097657-1.558593 5.65625 0l56.570313 56.570313c.75.75 1.167968 1.765625 1.167968 2.832031 0 1.0625-.425781 2.078125-1.167968 2.832032l-28.289063 28.285156c-.742187.738281-1.761719 1.152344-2.824219 1.152344zm-50.902343-60.566407 50.902343 50.910157 22.632813-22.632813-50.914063-50.910156zm0 0" fill="#263238"/><path d="m373.382812 400.398438c-1.023437 0-2.046874-.390626-2.832031-1.167969-1.558593-1.558594-1.558593-4.09375 0-5.65625l28.289063-28.277344c1.558594-1.5625 4.097656-1.5625 5.65625 0 1.558594 1.558594 1.558594 4.09375 0 5.65625l-28.289063 28.277344c-.773437.777343-1.800781 1.167969-2.824219 1.167969zm0 0" fill="#263238"/><path d="m308.328125 307.0625c-1.023437 0-2.046875-.390625-2.832031-1.167969l-220.617188-220.621093c-1.558594-1.5625-1.558594-4.097657 0-5.65625 1.5625-1.5625 4.097656-1.5625 5.65625 0l220.617188 220.613281c1.558594 1.5625 1.558594 4.097656 0 5.65625-.777344.785156-1.800782 1.175781-2.824219 1.175781zm0 0" fill="#263238"/><path d="m362.074219 328.515625-28.285157 28.285156-28.28125-28.285156 28.28125-28.285156zm0 0" fill="#40c4ff"/><g fill="#263238"><path d="m333.792969 360.800781c-1.023438 0-2.050781-.394531-2.832031-1.167969l-28.289063-28.28125c-.75-.75-1.167969-1.765624-1.167969-2.832031 0-1.0625.425782-2.078125 1.167969-2.832031l28.289063-28.289062c.75-.75 1.765624-1.167969 2.832031-1.167969 1.0625 0 2.078125.425781 2.832031 1.167969l28.277344 28.289062c1.5625 1.558594 1.5625 4.097656 0 5.65625l-28.277344 28.28125c-.792969.78125-1.808594 1.175781-2.832031 1.175781zm-22.632813-32.28125 22.632813 22.625 22.621093-22.625-22.621093-22.632812zm0 0"/><path d="m401.671875 440c-1.023437 0-2.046875-.390625-2.832031-1.167969l-16.976563-16.976562c-.75-.75-1.167969-1.765625-1.167969-2.832031 0-1.0625.425782-2.078126 1.167969-2.832032l39.601563-39.597656c1.558594-1.5625 4.09375-1.5625 5.65625 0l16.96875 16.964844c1.558594 1.5625 1.558594 4.097656 0 5.65625l-39.59375 39.601562c-.777344.792969-1.800782 1.183594-2.824219 1.183594zm-11.320313-20.976562 11.320313 11.320312 33.9375-33.945312-11.3125-11.308594zm0 0"/><path d="m20 222.734375h-16c-2.207031 0-4-1.789063-4-4 0-2.207031 1.792969-4 4-4h16c2.207031 0 4 1.792969 4 4 0 2.210937-1.792969 4-4 4zm0 0"/><path d="m124 222.734375h-88c-2.207031 0-4-1.789063-4-4 0-2.207031 1.792969-4 4-4h88c2.207031 0 4 1.792969 4 4 0 2.210937-1.792969 4-4 4zm0 0"/><path d="m508 222.734375h-15.992188c-2.207031 0-4-1.789063-4-4 0-2.207031 1.792969-4 4-4h15.992188c2.207031 0 4 1.792969 4 4 0 2.210937-1.792969 4-4 4zm0 0"/><path d="m476 222.734375h-87.992188c-2.207031 0-4-1.789063-4-4 0-2.207031 1.792969-4 4-4h87.992188c2.207031 0 4 1.792969 4 4 0 2.210937-1.792969 4-4 4zm0 0"/><path d="m294.007812 24h-32c-2.207031 0-4-1.792969-4-4s1.792969-4 4-4h32c2.207032 0 4 1.792969 4 4s-1.792968 4-4 4zm0 0"/><path d="m278.007812 40c-2.207031 0-4-1.792969-4-4v-32c0-2.207031 1.792969-4 4-4 2.207032 0 4 1.792969 4 4v32c0 2.207031-1.792968 4-4 4zm0 0"/><path d="m250 64h-32c-2.207031 0-4-1.792969-4-4s1.792969-4 4-4h32c2.207031 0 4 1.792969 4 4s-1.792969 4-4 4zm0 0"/><path d="m234 80c-2.207031 0-4-1.792969-4-4v-32c0-2.207031 1.792969-4 4-4s4 1.792969 4 4v32c0 2.207031-1.792969 4-4 4zm0 0"/></g></svg>