<?xml version="1.0" encoding="iso-8859-1"?>
<!-- Generator: Adobe Illustrator 19.0.0, SVG Export Plug-In . SVG Version: 6.00 Build 0)  -->
<svg version="1.1" id="Capa_1" xmlns="http://www.w3.org/2000/svg" xmlns:xlink="http://www.w3.org/1999/xlink" x="0px" y="0px"
	 viewBox="0 0 512 512" style="enable-background:new 0 0 512 512;" xml:space="preserve">
<polygon style="fill:#BCAAA3;" points="291.31,246.789 225.691,227.308 79.691,231.095 38.657,246.789 38.657,286.843 
	54.691,302.431 38.657,318.018 38.657,426.663 52.691,442.25 38.657,457.838 38.657,504.5 291.31,504.5 385.897,372.291 "/>
<path style="fill:#FFCB80;" d="M98.215,62.464c-25.108,92.5-88.802,144.87-89.411,145.364l13.888,19.48h278l35.246-19.48
	l46.627-145.364C382.564,62.464,98.215,62.464,98.215,62.464z"/>
<polygon style="fill:#4D342E;" points="323.44,246.789 335.937,207.828 291.31,207.828 8.804,207.828 8.804,246.789 "/>
<polygon style="fill:#D4BFB8;" points="480.484,194.581 480.484,194.58 450.691,139.987 385.897,26.987 291.31,162.987 
	291.31,194.581 291.31,286.843 291.31,286.843 385.897,302.431 480.484,286.843 480.484,286.843 "/>
<rect x="352.121" y="168.36" style="fill:#6D4C41;" width="67.56" height="84.4"/>
<polygon style="fill:#D4BFB8;" points="480.483,318.018 385.897,302.431 291.31,318.018 291.31,426.663 291.31,426.663 
	385.897,442.25 480.484,426.663 480.484,318.018 "/>
<polygon style="fill:#4D342E;" points="480.484,426.663 407.941,372.34 480.484,318.018 466.025,307.587 436.397,318.018 
	385.897,355.833 335.398,318.018 310.691,302.431 291.31,318.018 291.31,318.018 291.31,318.018 291.31,318.018 291.31,318.018 
	363.853,372.34 291.31,426.663 308.025,436.987 335.398,426.663 385.897,388.848 436.397,426.663 467.358,436.987 "/>
<path style="opacity:0.1;enable-background:new    ;" d="M450.691,139.987l-64.794-113l-94.587,136v31.594v38.458l18.771-15.056
	c5.393-4.325,43.166-35.771,75.816-92.784c32.652,57.016,70.427,88.461,75.82,92.786l18.768,15.051v-38.455l0,0L450.691,139.987z"/>
<path style="fill:#6D4C41;" d="M480.484,194.581c-2.757-2.211-63.085-51.399-94.587-141.181
	c-31.502,89.782-91.83,138.97-94.587,141.181l-22.714-28.319c0.61-0.494,64.304-52.864,89.411-145.364
	c2.147-7.909,9.324-13.398,17.518-13.398h20.745c8.194,0,15.371,5.489,17.518,13.397c25.261,93.069,88.773,144.852,89.411,145.364
	L480.484,194.581z"/>
<polygon style="fill:#4D342E;" points="291.31,286.843 38.657,286.843 38.657,318.018 291.31,318.018 310.691,302.431 "/>
<rect x="291.311" y="286.84" style="fill:#6D4C41;" width="189.17" height="31.18"/>
<polygon style="fill:#D4BFB8;" points="480.483,457.838 480.484,457.838 385.897,442.25 291.31,457.838 291.311,457.838 
	291.31,457.838 291.31,504.5 480.484,504.5 480.484,457.838 "/>
<polygon style="fill:#4D342E;" points="291.31,426.663 38.657,426.663 38.657,457.838 291.31,457.838 310.691,442.25 "/>
<rect x="291.311" y="426.66" style="fill:#6D4C41;" width="189.17" height="31.18"/>
<rect x="38.657" y="457.81" style="opacity:0.1;enable-background:new    ;" width="441.83" height="31.13"/>
<rect x="38.657" y="318.02" style="opacity:0.1;enable-background:new    ;" width="441.83" height="31.13"/>
<path d="M419.679,160.865h-67.56c-4.143,0-7.5,3.357-7.5,7.5v84.398c0,4.143,3.357,7.5,7.5,7.5h67.56c4.143,0,7.5-3.357,7.5-7.5
	v-84.398C427.179,164.222,423.822,160.865,419.679,160.865z M412.179,245.263h-52.56v-69.398h52.56V245.263z"/>
<path d="M31.16,504.5c0,4.142,3.358,7.5,7.5,7.5h441.827c4.143,0,7.5-3.358,7.5-7.5V197.217l21.064-26.263
	c2.582-3.22,2.064-7.932-1.142-10.53c-0.622-0.504-62.432-51.413-86.882-141.492C418.003,7.786,407.822,0,396.272,0h-20.745
	c-11.55,0-21.729,7.786-24.756,18.932c-3.475,12.803-7.723,24.823-12.449,36.032H98.217c-3.385,0-6.351,2.268-7.238,5.535
	c-2.614,9.631-5.802,19.298-9.476,28.734c-1.502,3.86,0.408,8.207,4.269,9.71c3.86,1.503,8.207-0.409,9.71-4.269
	c3.162-8.123,5.983-16.411,8.412-24.71h227.599c-25.999,53.161-60.986,84.75-66.788,89.765c-0.017,0.015-0.033,0.029-0.049,0.043
	c-3.345,2.837-4.921,7.425-1.909,11.183l21.065,26.263v3.111H27.637c13.866-14.256,35.549-39.667,53.895-74.912
	c1.912-3.674,0.484-8.203-3.19-10.115c-3.675-1.914-8.204-0.484-10.116,3.189c-27.824,53.452-63.794,83.226-64.16,83.527
	c-1.719,1.414-2.76,3.581-2.76,5.81v38.96c0,4.142,3.358,7.5,7.5,7.5H31.16C31.16,254.288,31.16,504.5,31.16,504.5z
	 M472.987,450.338H298.813v-16.175h174.174L472.987,450.338L472.987,450.338z M472.987,310.518H298.813v-16.175h174.174
	L472.987,310.518L472.987,310.518z M472.987,411.677l-52.531-39.337l52.531-39.336V411.677z M457.959,325.518l-125.055,93.645
	h-19.062l125.055-93.645H457.959z M438.896,419.163l-40.483-30.315l9.531-7.137l50.015,37.453h-19.063V419.163z M385.9,346.464
	l-27.972-20.946h55.943L385.9,346.464z M373.387,355.833l-9.531,7.138l-50.015-37.453h19.063L373.387,355.833z M351.344,372.341
	l-52.531,39.336v-78.673L351.344,372.341z M385.9,398.217l27.972,20.946h-55.944L385.9,398.217z M283.813,310.518H46.16v-16.175
	h237.653V310.518z M46.16,325.518h237.653v93.645H46.16V325.518z M46.16,434.163h237.653v16.175H46.16V434.163z M472.987,279.343
	H298.813v-81.271c11.847-10.25,57.499-52.833,87.087-123.747c29.588,70.914,75.24,113.497,87.087,123.747L472.987,279.343
	L472.987,279.343z M283.813,254.289v25.055H46.16v-25.055H283.813z M46.16,465.338h237.653V497H46.16V465.338z M298.813,497v-31.662
	h174.174V497H298.813z M365.248,22.862c1.256-4.629,5.483-7.862,10.279-7.862h20.745c4.796,0,9.023,3.233,10.279,7.862
	c21.395,78.82,69.832,128.977,86.331,144.277l-13.379,16.68c-15.896-14.415-60.903-59.875-86.526-132.903
	c-1.055-3.005-3.893-5.017-7.077-5.017s-6.022,2.012-7.077,5.017c-25.625,73.033-70.633,118.491-86.527,132.902l-11.717-14.607
	l-1.674-2.087c13.278-12.368,47.384-47.494,71.232-101.637c0.046-0.104,0.076-0.212,0.117-0.317
	C355.984,52.143,361.13,38.032,365.248,22.862z M16.306,215.328h267.507v23.96H16.306V215.328z"/>
<g>
</g>
<g>
</g>
<g>
</g>
<g>
</g>
<g>
</g>
<g>
</g>
<g>
</g>
<g>
</g>
<g>
</g>
<g>
</g>
<g>
</g>
<g>
</g>
<g>
</g>
<g>
</g>
<g>
</g>
</svg>
