<svg height="512" viewBox="0 0 128 128" width="512" xmlns="http://www.w3.org/2000/svg"><g><g><rect fill="#756f6f" height="13.958" rx="4" width="92.373" x="17.813" y="54.479"/><path d="m43.364 28.929h38.272a3 3 0 0 1 3 3v3.831a3 3 0 0 1 -3 3h-38.272a0 0 0 0 1 0 0v-9.831a0 0 0 0 1 0 0z" fill="#61d7a8" transform="matrix(0 -1 1 0 30.156 97.844)"/><g fill="#dccfca"><path d="m28.949 63.209h-3.71a1.75 1.75 0 0 1 0-3.5h3.71a1.75 1.75 0 0 1 0 3.5z"/><path d="m89.229 63.209h-10.499a1.75 1.75 0 0 1 0-3.5h10.5a1.75 1.75 0 0 1 0 3.5zm-21 0h-10.5a1.75 1.75 0 0 1 0-3.5h10.5a1.75 1.75 0 0 1 0 3.5zm-21 0h-10.5a1.75 1.75 0 0 1 0-3.5h10.5a1.75 1.75 0 0 1 0 3.5z"/><path d="m102.761 63.209h-3.71a1.75 1.75 0 1 1 0-3.5h3.71a1.75 1.75 0 0 1 0 3.5z"/></g><path d="m59.084 20.634a33.845 33.845 0 0 0 -33.845 33.845h33.846v-33.845z" fill="#595555"/><path d="m68.915 20.634v33.845h33.846a33.845 33.845 0 0 0 -33.846-33.845z" fill="#595555"/><path d="m39.291 27.033a41.649 41.649 0 0 1 -19.955-25.233 41.506 41.506 0 0 0 8.935 38.686 33.963 33.963 0 0 1 11.02-13.453z" fill="#756f6f"/><path d="m88.709 27.033a41.649 41.649 0 0 0 19.955-25.233 41.515 41.515 0 0 1 -8.935 38.686 33.972 33.972 0 0 0 -11.02-13.453z" fill="#756f6f"/><path d="m102.761 68.438v14.262a4 4 0 0 1 -2.149 3.547l-16.42 8.568a4 4 0 0 0 -2.15 3.546v6.139a4 4 0 0 1 -4 4h-28.084a4 4 0 0 1 -4-4v-6.139a4 4 0 0 0 -2.15-3.546l-16.42-8.568a4 4 0 0 1 -2.149-3.547v-14.262z" fill="#dccfca"/><path d="m82.042 98.361v6.139a4 4 0 0 1 -4 4h-28.084a4 4 0 0 1 -4-4v-6.139a4 4 0 0 0 -2.15-3.546l-9.2-4.8v22.236a14 14 0 0 0 14 14h30.78a14 14 0 0 0 14-14v-22.235l-9.2 4.8a4 4 0 0 0 -2.146 3.545z" fill="#b7a6a1"/><g fill="#756f6f"><path d="m55.5 101.315a1.75 1.75 0 0 0 -1.75 1.75v10.865a1.75 1.75 0 0 0 3.5 0v-10.865a1.75 1.75 0 0 0 -1.75-1.75z"/><path d="m72.5 101.315a1.75 1.75 0 0 0 -1.75 1.75v10.865a1.75 1.75 0 0 0 3.5 0v-10.865a1.75 1.75 0 0 0 -1.75-1.75z"/><path d="m64 101.315a1.75 1.75 0 0 0 -1.75 1.75v10.865a1.75 1.75 0 0 0 3.5 0v-10.865a1.75 1.75 0 0 0 -1.75-1.75z"/></g><g fill="#595555"><path d="m46.449 82.4-6.7-1.928a7.092 7.092 0 0 1 -5.132-6.815v-5.22h20.883v7.147a7.092 7.092 0 0 1 -9.051 6.816z"/><path d="m81.55 82.4 6.706-1.928a7.092 7.092 0 0 0 5.132-6.815v-5.22h-20.888v7.147a7.092 7.092 0 0 0 9.05 6.816z"/><path d="m66.335 94.122h-4.67a3 3 0 0 1 -2.809-4.052l1.755-4.685a3 3 0 0 1 2.809-1.947h1.16a3 3 0 0 1 2.809 1.947l1.755 4.685a3 3 0 0 1 -2.809 4.052z"/></g></g><g fill="#2e1700"><path d="m106.186 52.729h-1.719a35.345 35.345 0 0 0 -2.7-11.947 43.231 43.231 0 0 0 8.583-39.456 1.75 1.75 0 0 0 -3.372 0 40.068 40.068 0 0 1 -18.192 23.634 35.38 35.38 0 0 0 -18.121-6.032v-2.72a4.755 4.755 0 0 0 -4.75-4.75h-3.831a4.756 4.756 0 0 0 -4.75 4.75v2.72a35.371 35.371 0 0 0 -18.115 6.029 39.972 39.972 0 0 1 -6.884-5.1 1.75 1.75 0 0 0 -2.379 2.567 43.472 43.472 0 0 0 6.251 4.815 35.842 35.842 0 0 0 -8.287 10.061 39.7 39.7 0 0 1 -8.088-28.978 43.3 43.3 0 0 0 3.175 5.839 1.75 1.75 0 1 0 2.938-1.9 39.532 39.532 0 0 1 -4.923-10.935 1.75 1.75 0 0 0 -3.372 0 43.222 43.222 0 0 0 8.583 39.456 35.339 35.339 0 0 0 -2.7 11.947h-1.72a5.757 5.757 0 0 0 -5.75 5.75v5.959a5.757 5.757 0 0 0 5.75 5.75h1.676v12.512a5.734 5.734 0 0 0 3.09 5.1l6.283 3.278v21.175a15.768 15.768 0 0 0 15.75 15.747h30.776a15.768 15.768 0 0 0 15.75-15.75 1.75 1.75 0 1 0 -3.5 0 12.263 12.263 0 0 1 -12.25 12.25h-30.776a12.263 12.263 0 0 1 -12.25-12.25v-19.35l6.638 3.467a2.243 2.243 0 0 1 1.209 1.994v6.139a5.757 5.757 0 0 0 5.75 5.75h3.791v3.683a1.75 1.75 0 0 0 3.5 0v-3.683h5v3.683a1.75 1.75 0 0 0 3.5 0v-3.683h5v3.683a1.75 1.75 0 0 0 3.5 0v-3.683h3.792a5.757 5.757 0 0 0 5.75-5.75v-6.139a2.243 2.243 0 0 1 1.208-1.994l16.42-8.568a5.734 5.734 0 0 0 3.09-5.1v-12.511h1.675a5.757 5.757 0 0 0 5.75-5.75v-5.959a5.757 5.757 0 0 0 -5.749-5.75zm1.979-44.42a39.7 39.7 0 0 1 -8.085 28.991 35.815 35.815 0 0 0 -8.3-10.072 43.717 43.717 0 0 0 16.385-18.919zm-10.017 32.924v.005a31.847 31.847 0 0 1 2.814 11.491h-30.3v-30.3a32.159 32.159 0 0 1 27.486 18.804zm-37.314-25.025a1.252 1.252 0 0 1 1.25-1.25h3.831a1.251 1.251 0 0 1 1.25 1.25v36.521h-6.331zm-30.985 25.03v-.005a32.159 32.159 0 0 1 27.482-18.8v30.3h-30.3a31.867 31.867 0 0 1 2.818-11.495zm71.162 41.462a2.241 2.241 0 0 1 -1.211 2l-16.42 8.569a5.733 5.733 0 0 0 -3.09 5.1v6.131a2.253 2.253 0 0 1 -2.25 2.25h-3.79v-3.682a1.75 1.75 0 0 0 -3.5 0v3.682h-5v-3.682a1.75 1.75 0 0 0 -3.5 0v3.682h-5v-3.682a1.75 1.75 0 0 0 -3.5 0v3.682h-3.792a2.253 2.253 0 0 1 -2.25-2.25v-6.139a5.733 5.733 0 0 0 -3.09-5.1l-16.418-8.561a2.241 2.241 0 0 1 -1.211-2v-12.512h5.873v3.469a8.879 8.879 0 0 0 6.4 8.5l6.7 1.928a8.919 8.919 0 0 0 2.468.351 8.857 8.857 0 0 0 8.816-8.848v-5.4h13.5v5.4a8.855 8.855 0 0 0 8.816 8.848 8.919 8.919 0 0 0 2.468-.351l6.7-1.928a8.879 8.879 0 0 0 6.4-8.5v-3.469h5.873zm-64.649-12.512h17.388v5.4a5.342 5.342 0 0 1 -6.817 5.134l-6.706-1.928a5.365 5.365 0 0 1 -3.865-5.134zm44.7 10.531a5.342 5.342 0 0 1 -6.817-5.134v-5.4h17.393v3.469a5.364 5.364 0 0 1 -3.866 5.134zm27.369-16.281a2.253 2.253 0 0 1 -2.25 2.25h-84.368a2.253 2.253 0 0 1 -2.25-2.25v-5.959a2.253 2.253 0 0 1 2.25-2.25h84.373a2.253 2.253 0 0 1 2.25 2.25z"/><path d="m28.949 59.709h-3.71a1.75 1.75 0 0 0 0 3.5h3.71a1.75 1.75 0 0 0 0-3.5z"/><path d="m47.236 59.709h-10.5a1.75 1.75 0 0 0 0 3.5h10.5a1.75 1.75 0 0 0 0-3.5z"/><path d="m68.232 59.709h-10.5a1.75 1.75 0 0 0 0 3.5h10.5a1.75 1.75 0 0 0 0-3.5z"/><path d="m89.229 59.709h-10.499a1.75 1.75 0 0 0 0 3.5h10.5a1.75 1.75 0 0 0 0-3.5z"/><path d="m102.761 59.709h-3.71a1.75 1.75 0 1 0 0 3.5h3.71a1.75 1.75 0 0 0 0-3.5z"/><path d="m93.388 97.861a1.751 1.751 0 0 0 -1.75 1.75v3.045a1.75 1.75 0 0 0 3.5 0v-3.045a1.751 1.751 0 0 0 -1.75-1.75z"/><path d="m69.027 84.772a4.769 4.769 0 0 0 -4.447-3.084h-1.16a4.77 4.77 0 0 0 -4.447 3.083l-1.756 4.685a4.75 4.75 0 0 0 4.448 6.416h4.67a4.75 4.75 0 0 0 4.448-6.416zm-1.665 7.062a1.238 1.238 0 0 1 -1.027.538h-4.67a1.249 1.249 0 0 1 -1.17-1.687l1.755-4.685a1.256 1.256 0 0 1 1.17-.81h1.16a1.256 1.256 0 0 1 1.17.81l1.755 4.686a1.238 1.238 0 0 1 -.143 1.148z"/></g></g></svg>