<svg id="icons" enable-background="new 0 0 64 64" height="512" viewBox="0 0 64 64" width="512" xmlns="http://www.w3.org/2000/svg"><g><g><path d="m15 55.5h40 2v5h-44v-5z" fill="#656d78"/></g><g><path d="m9 23.5c0-11.05 8.95-20 20-20h6c-11.05 0-20 8.95-20 20v32h-2-4z" fill="#aab2bd"/></g><g><path d="m13 55.5v5h-6v-5h2z" fill="#545c66"/></g><g><path d="m35 3.5c-11.05 0-20 8.95-20 20v32h40v-32c0-11.05-8.95-20-20-20z" fill="#ccd1d9"/></g></g><g><g><path d="m55 24.498c-.553 0-1-.448-1-1 0-10.477-8.523-19-19-19s-19 8.523-19 19c0 .552-.447 1-1 1s-1-.448-1-1c0-11.58 9.421-21 21-21s21 9.42 21 21c0 .552-.447 1-1 1z"/></g><g><path d="m55 56.497c-.553 0-1-.447-1-1v-31.999c0-.552.447-1 1-1s1 .448 1 1v31.999c0 .553-.447 1-1 1z"/></g><g><path d="m63 61.502h-62c-.553 0-1-.447-1-1s.447-1 1-1h62c.553 0 1 .447 1 1s-.447 1-1 1z"/></g><g><path d="m15 56.497c-.553 0-1-.447-1-1v-31.999c0-.552.447-1 1-1s1 .448 1 1v31.999c0 .553-.447 1-1 1z"/></g><g><path d="m9 24.498c-.553 0-1-.448-1-1 0-11.58 9.421-21 21-21 .553 0 1 .448 1 1s-.447 1-1 1c-10.477 0-19 8.523-19 19 0 .552-.447 1-1 1z"/></g><g><path d="m9 56.497c-.553 0-1-.447-1-1v-31.999c0-.552.447-1 1-1s1 .448 1 1v31.999c0 .553-.447 1-1 1z"/></g><g><path d="m35 4.498h-6c-.553 0-1-.448-1-1s.447-1 1-1h6c.553 0 1 .448 1 1s-.447 1-1 1z"/></g><g><path d="m57 61.502h-43.999c-.553 0-1-.447-1-1v-5.001c0-.553.447-1 1-1h43.999c.553 0 1 .447 1 1v5.001c0 .553-.447 1-1 1zm-42.999-2h41.999v-3.001h-41.999z"/></g><g><path d="m13.001 61.502h-6.001c-.553 0-1-.447-1-1v-5.002c0-.553.447-1 1-1h6.001c.553 0 1 .447 1 1v5.002c0 .553-.447 1-1 1zm-5.001-2h4.001v-3.002h-4.001z"/></g><g><g><path d="m22.999 35.502c-.553 0-1-.447-1-1v-10c0-.552.447-1 1-1s1 .448 1 1v10c0 .553-.447 1-1 1z"/></g><g><path d="m25.999 31.503c-.553 0-1-.448-1-1s.447-1 1-1c1.103 0 2-.897 2-2.001 0-1.103-.897-2-2-2-.553 0-1-.448-1-1s.447-1 1-1c2.206 0 4 1.794 4 4s-1.794 4.001-4 4.001z"/></g><g><path d="m25.999 25.502h-3c-.553 0-1-.448-1-1s.447-1 1-1h3c.553 0 1 .448 1 1s-.447 1-1 1z"/></g><g><path d="m25.999 31.503h-3c-.553 0-1-.448-1-1s.447-1 1-1h3c.553 0 1 .448 1 1s-.447 1-1 1z"/></g><g><path d="m42.999 35.502c-.553 0-1-.447-1-1v-10c0-.552.447-1 1-1s1 .448 1 1v10c0 .553-.447 1-1 1z"/></g><g><path d="m45.999 31.503c-.553 0-1-.448-1-1s.447-1 1-1c1.103 0 2-.897 2-2.001 0-1.103-.897-2-2-2-.553 0-1-.448-1-1s.447-1 1-1c2.206 0 4 1.794 4 4s-1.794 4.001-4 4.001z"/></g><g><path d="m45.999 25.502h-3c-.553 0-1-.448-1-1s.447-1 1-1h3c.553 0 1 .448 1 1s-.447 1-1 1z"/></g><g><path d="m45.999 31.503h-3c-.553 0-1-.448-1-1s.447-1 1-1h3c.553 0 1 .448 1 1s-.447 1-1 1z"/></g><g><path d="m29.001 35.502c-.304 0-.604-.138-.801-.399l-3.001-4c-.331-.441-.242-1.068.199-1.4.444-.331 1.069-.242 1.4.2l3.001 3.999c.331.442.242 1.069-.199 1.4-.18.135-.39.2-.599.2z"/></g><g><path d="m35.999 35.502c-.553 0-1-.447-1-1v-10c0-.552.447-1 1-1s1 .448 1 1v10c0 .553-.447 1-1 1z"/></g><g><path d="m38.999 25.502h-6c-.553 0-1-.448-1-1s.447-1 1-1h6c.553 0 1 .448 1 1s-.447 1-1 1z"/></g><g><path d="m38.999 35.502h-6c-.553 0-1-.447-1-1s.447-1 1-1h6c.553 0 1 .447 1 1s-.447 1-1 1z"/></g></g><g><path d="m49 45.505h-28c-.553 0-1-.447-1-1s.447-1 1-1h28c.553 0 1 .447 1 1s-.447 1-1 1z"/></g><g><path d="m49 42.502h-28c-.553 0-1-.447-1-1s.447-1 1-1h28c.553 0 1 .447 1 1s-.447 1-1 1z"/></g><g><path d="m40 48.505h-10c-.553 0-1-.447-1-1s.447-1 1-1h10c.553 0 1 .447 1 1s-.447 1-1 1z"/></g></g></svg>